<svg width="50" height="50" viewBox="0 0 50 50" fill="none" xmlns="http://www.w3.org/2000/svg">
<circle cx="25" cy="25" r="25" fill="#D9D9D9"/>
<path d="M25.9375 16.3584C27.1637 15.0665 29.2788 14.6971 31.7725 14.9484C34.0863 15.1809 36.4656 15.929 38.125 16.6227V35.2284C36.4038 34.5721 34.1744 33.9309 31.9619 33.7096C29.9106 33.5015 27.6906 33.6365 25.9375 34.6321V16.3584ZM25 14.6634C23.1531 13.0752 20.4756 12.839 18.0381 13.0827C15.1994 13.3696 12.3344 14.3427 10.5494 15.1546C10.3856 15.2291 10.2467 15.3492 10.1493 15.5004C10.0519 15.6517 10 15.8278 10 16.0077V36.6327C10 36.7896 10.0394 36.9439 10.1146 37.0816C10.1897 37.2193 10.2982 37.3359 10.4301 37.4208C10.562 37.5057 10.7131 37.5562 10.8696 37.5675C11.026 37.5789 11.1828 37.5508 11.3256 37.4859C12.9794 36.7359 15.6438 35.834 18.2256 35.5734C20.8675 35.3071 23.0819 35.7365 24.2688 37.2177C24.3566 37.3272 24.4679 37.4156 24.5945 37.4763C24.721 37.537 24.8596 37.5686 25 37.5686C25.1404 37.5686 25.279 37.537 25.4055 37.4763C25.5321 37.4156 25.6434 37.3272 25.7313 37.2177C26.9181 35.7365 29.1325 35.3071 31.7725 35.5734C34.3563 35.834 37.0225 36.7359 38.6744 37.4859C38.8172 37.5508 38.974 37.5789 39.1304 37.5675C39.2869 37.5562 39.4379 37.5057 39.5699 37.4208C39.7018 37.3359 39.8103 37.2193 39.8854 37.0816C39.9606 36.9439 40 36.7896 40 36.6327V16.0077C40 15.8278 39.9481 15.6517 39.8507 15.5004C39.7533 15.3492 39.6144 15.2291 39.4506 15.1546C37.6656 14.3427 34.8006 13.3696 31.9619 13.0827C29.5244 12.8371 26.8469 13.0752 25 14.6634Z" fill="#4C2B01"/>
</svg>
